<?xml version="1.0" encoding="UTF-8" standalone="no"?>
<!-- Created with Inkscape (http://www.inkscape.org/) -->

<svg
   width="125.42814mm"
   height="115.08703mm"
   viewBox="0 0 125.42814 115.08702"
   version="1.1"
   id="svg1"
   xml:space="preserve"
   sodipodi:docname="logo.svg"
   xmlns:inkscape="http://www.inkscape.org/namespaces/inkscape"
   xmlns:sodipodi="http://sodipodi.sourceforge.net/DTD/sodipodi-0.dtd"
   xmlns="http://www.w3.org/2000/svg"
   xmlns:svg="http://www.w3.org/2000/svg"><sodipodi:namedview
     id="namedview1"
     pagecolor="#ffffff"
     bordercolor="#000000"
     borderopacity="0.25"
     inkscape:showpageshadow="2"
     inkscape:pageopacity="0.0"
     inkscape:pagecheckerboard="0"
     inkscape:deskcolor="#d1d1d1"
     inkscape:document-units="mm" /><defs
     id="defs1" /><path
     style="fill:#ffffff;fill-opacity:1"
     d="M 4.570147,114.75677 C 3.388679,114.37378 1.443173,112.61329 0.731871,111.28351 L 0.14762,110.19125 0.07381,93.565187 0,76.939117 1.005814,75.933297 c 0.562366,-0.56236 1.469789,-1.13462 2.058183,-1.29797 0.644089,-0.17882 3.746888,-0.29274 7.99768,-0.29364 l 6.945313,-10e-4 v -5.77921 -5.77922 l 0.615854,-1.1661 0.615855,-1.16609 1.281324,-0.79375 1.281325,-0.79375 18.211154,-0.078 18.211153,-0.0781 v -7.79331 -7.79331 H 48.36618 c -5.625047,0 -10.244445,-0.11098 -10.758742,-0.25848 -1.972947,-0.56583 -3.692708,-2.28018 -4.255332,-4.24194 -0.128561,-0.44826 -0.255842,-8.39991 -0.282847,-17.67032 l -0.0491,-16.8553004 0.391505,-0.93018 c 0.504764,-1.19927 2.035773,-2.53724993 3.307365,-2.89036993 0.604704,-0.16793 4.395531,-0.27583 9.598378,-0.273210003181 l 8.598958,0.0040000032 1.09808,0.4986 c 0.66407,0.30154 2.2327,1.65890993 3.968749,3.43424993 l 2.87067,2.93565 11.31943,-4.8e-4 11.31944,-4.7e-4 0.974,0.40696 c 1.31203,0.5482 1.90208,1.11232 2.48014,2.37116 l 0.48599,1.0583404 0.006,13.83297 0.006,13.83298 -0.35678,0.85139 c -0.57839,1.38025 -1.7781,2.60376 -3.20428,3.26788 l -1.33373,0.62106 -9.85573,0.003 -9.85573,0.003 v 7.80521 7.80521 h 17.34534 17.34533 l 1.160016,0.29209 c 1.31507,0.33114 3.09963,1.73683 3.7776,2.97561 l 0.45609,0.83334 -0.0583,8.65416 -0.0583,8.65416 7.99578,0.0771 7.99578,0.0771 1.26397,0.6224 c 1.39132,0.68511 2.44483,1.88779 2.98875,3.41196 l 0.35427,0.99272 0.0116,11.92527 0.0116,11.925263 -0.44111,1.29459 c -0.58418,1.71447 -2.46492,3.59522 -4.17939,4.17939 l -1.2946,0.44112 -19.06901,-0.003 -19.069006,-0.003 -1.32292,-0.61736 c -1.46186,-0.68219 -3.15702,-2.39278 -3.72987,-3.76382 l -0.37117,-0.88832 0.006,-15.949653 0.006,-15.94964 0.48599,-1.05833 c 0.59559,-1.29702 1.27528,-1.92458 2.59373,-2.3948 l 1.0097,-0.3601 6.95381,-0.0116 6.95381,-0.0116 0.98369,0.4094 c 0.54103,0.22517 1.48721,0.90235 2.10262,1.50485 0.61542,0.6025 1.1512,1.04335 1.19063,0.97967 0.0394,-0.0637 0.0374,-2.7054 -0.004,-5.87048 l -0.0762,-5.75469 H 61.388634 24.621578 v 5.62949 5.62949 l 1.792577,1.77885 1.792578,1.77884 h 8.541301 c 5.45929,0 8.96863,0.1076 9.725576,0.2982 0.753154,0.18965 1.661195,0.727 2.494362,1.47609 l 1.310088,1.17788 0.400926,1.35006 0.400925,1.35006 v 11.54562 11.545633 l -0.408233,1.37466 c -0.484597,1.63182 -1.590996,2.97228 -3.266076,3.95701 l -1.220483,0.71749 -20.372916,0.0424 -20.372916,0.0424 z M 44.40215,97.557397 44.47126,86.775627 h -8.981576 c -5.644507,0 -9.253639,-0.10344 -9.713819,-0.2784 -0.402732,-0.15312 -1.994582,-1.52233 -3.537443,-3.04271 l -2.805203,-2.76431 H 13.031564 6.629909 v 13.71424 c 0,7.542833 0.08017,13.794403 0.17815,13.892393 0.09798,0.098 8.581186,0.14759 18.851562,0.11024 l 18.673412,-0.0679 z m 74.41109,0.0661 v -10.84792 l -9.32656,-0.001 -9.32656,-10e-4 -1.058336,-0.29223 -1.05833,-0.29222 -2.79262,-2.74901 -2.79261,-2.74901 h -4.94645 -4.94645 v 13.71424 c 0,7.542833 0.0794,13.793613 0.17639,13.890623 0.097,0.097 8.2528,0.17639 18.123956,0.17639 h 17.94757 z m -42.664056,-61.38306 6.68073,-2.8e-4 v -11.24474 -11.24479 h -10.85642 -10.85641 l -0.8514,-0.3694 c -0.468269,-0.20317 -2.278289,-1.81052 -4.022259,-3.5718804 l -3.170867,-3.20247 H 46.387693 39.702828 V 21.238337 c 0,8.88428 0.09869,14.73019 0.251261,14.88281 0.154242,0.1543 5.900947,0.22592 14.882812,0.18549 8.047353,-0.0362 17.637883,-0.066 21.312283,-0.0661 z"
     id="path2" /></svg>
